<?xml version="1.0" encoding="UTF-8" standalone="no"?>
<svg onload="changeData()" xmlns="http://www.w3.org/2000/svg" xmlns:xlink="http://www.w3.org/1999/xlink" contentScriptType="text/ecmascript" width="auto" zoomAndPan="magnify" contentStyleType="text/css" height="25em" viewBox="-5 0 480 940" preserveAspectRatio="xMidYMid meet" version="1.0">
    <title>FOX_CHILLINTALES_T17_006</title>
    <svg contentScriptType="text/ecmascript" zoomAndPan="magnify" contentStyleType="text/css" class="Page" preserveAspectRatio="xMidYMid meet" version="1.0">
        <image x="0" y="48" width="450" xlink:href="../../../image/panel/fox/FOX_CHILLINTALES_T17_Panel_01.jpg" xlink:type="simple" xlink:actuate="onLoad" height="860" preserveAspectRatio="xMidYMid meet" xlink:show="embed"/>
        <metadata collectionTitle="Chilling Tales" editorName="Youthful Magazines" doublePage="false" website="http://comicbookplus.com/?dlid=23923" albumTitle="Chilling Tales 17 Geo" drawerName="Matt Fox" language="english" resolution="" ISBN="" readingDirection="leftToRight" writerName="Matt Fox" releaseDate="" pageNumber="6"/>
    </svg>
	<style type="text/css" xml:space="preserve">
        * { stroke-width: 0; stroke-linejoin: round; }
        .Unclassified { fill: rgba(0,0,0,0); stroke: none; opacity: .8; visibility: hidden; }
        .Noise { fill: rgba(0,0,0,0); stroke: none; opacity: .8; visibility: hidden; }
        .Panel { fill: rgba(0,0,0,0); stroke: none; opacity: .8; visibility: visible; image-rendering: optimizeSpeed; }
        .Line { fill: rgba(0,0,0,0); stroke: none; opacity: .8; visibility: visible; image-rendering: optimizeSpeed; }
        .TextArea { fill: rgba(0,0,0,0); stroke: none; opacity: .8; visibility: visible; image-rendering: optimizeSpeed; }
        .Balloon { fill: rgba(0,0,0,0); stroke: none; opacity: .8; visibility: visible; image-rendering: optimizeSpeed; }
        .Letter { fill: rgba(0,0,0,0); stroke: none; opacity: .8; visibility: hidden; }
        .Character { fill: rgba(0,0,0,0); stroke: none; opacity: .8; visibility: visible; image-rendering: optimizeSpeed; }
        .Page { fill: rgba(0,0,0,0); stroke: none; opacity: .8; visibility: visible; }
        .linkSBSC { fill: rgba(0,0,0,0); stroke: none; opacity: .8; visibility: visible; }
        polygon:hover { stroke:red;stroke-width:2; } 
    </style>
    <svg contentScriptType="text/ecmascript" zoomAndPan="magnify" contentStyleType="text/css" class="Panel" preserveAspectRatio="xMidYMid meet" viewBox="0 0 480 940" version="1.0" id="panel">
        <polygon points="32,53 416,52 429,901 40,902 32,53" id="FOX_CHILLINTALES_T17_006_panel_0" 
            tabindex="0" onclick="setPanelData(3, 'Panel One','In a wood with trees.','STEENIE’s full body is at the center')">
            <metadata viewAngle="" uri="" shot="" area="" rank="1" fillingPcent=""/>
        </polygon>
    </svg>
    <svg contentScriptType="text/ecmascript" zoomAndPan="magnify" contentStyleType="text/css" class="Character" preserveAspectRatio="xMidYMid meet" viewBox="0 0 480 940" version="1.0" id="character">
        <polygon points="106,424 267,424 267,856 106,856 106,424" id="FOX_CHILLINTALES_T17_006_character_0" 
        tabindex="0" onclick="setCharacterData(3,'STEENIE','He is walking in the wood while touching his forehead with his left hand.','He seems like he has a headache.','A man has brown hair, wearing a yellow shirt with a red cloak.')">
            <metadata ID="" rank=""/>
        </polygon>
    </svg>
    <svg contentScriptType="text/ecmascript" zoomAndPan="magnify" contentStyleType="text/css" class="TextArea" preserveAspectRatio="xMidYMid meet" viewBox="0 0 480 940" version="1.0"/>
    <svg contentScriptType="text/ecmascript" zoomAndPan="magnify" contentStyleType="text/css" class="Balloon" preserveAspectRatio="xMidYMid meet" version="1.0" id="balloon">
        <polygon points="31,53 420,53 421,165 413,169 420,170 415,204 359,204 353,200 350,204 289,205 286,199 278,204 32,204 31,53" id="FOX_CHILLINTALES_T17_006_balloon_0" 
        tabindex="0" onclick="setBalloonData(3,'MY GRANDFATHER, STEENIE, FOR-TIFIED HIMSELF WITH BRANDY AND MAKE HIS WAY HOME THROUGH THE DARK WOODS OF HAUNTED PITMURKIE...')">
            <metadata borderStyle="smooth" tailTip="" boundingBox="" tailDirection="none" rank="1"/>
        </polygon>
        <polygon points="114,206 137,204 193,205 275,203 286,198 293,203 351,204 356,201 363,205 408,204 417,210 424,212 430,226 429,242 424,257 413,267 392,273 382,275 392,281 397,287 392,298 376,307 362,311 343,314 326,317 305,319 281,321 257,321 241,323 238,339 230,359 217,385 223,354 226,331 222,316 205,317 186,319 157,316 139,315 118,310 104,303 100,293 107,286 111,282 104,281 93,275 88,253 90,232 100,218 114,206" id="FOX_CHILLINTALES_T17_006_balloon_1" 
        tabindex="0" onclick="setBalloonData(0,'AYE! I AM LOST! MY HOME WILL BE TAKEN--IS ME!')">
            <metadata borderStyle="smooth" tailTip="217,385" boundingBox="" tailDirection="SW" rank="2"/>
        </polygon>
    </svg>
<metadata method="GroundTruth" lastModificationDate="Wed Apr 09 00:00:24 CEST 2014" lastStepModified="Page_Ended"/>
<script type="text/javascript" xlink:href="https://sdk.amazonaws.com/js/aws-sdk-2.410.0.min.js" xlink:actuate="onLoad" xlink:show="other" xlink:type="simple"></script>
<script type="text/javascript" xlink:href="../../../../java/polly.js" xlink:actuate="onLoad" xlink:show="other" xlink:type="simple"> </script>
<script type="text/javascript" xlink:href="../../../../java/pollyData.js" xlink:actuate="onLoad" xlink:show="other" xlink:type="simple"> </script>
<script type="text/javascript" xlink:href="../../../../java/toggleEvent.js" xlink:actuate="onLoad" xlink:show="other" xlink:type="simple"> </script>
</svg>