<?xml version="1.0" encoding="UTF-8" standalone="no"?>
<svg xmlns="http://www.w3.org/2000/svg" xmlns:xlink="http://www.w3.org/1999/xlink" contentScriptType="text/ecmascript" width="23em" zoomAndPan="magnify" contentStyleType="text/css" height="auto" viewBox="0 0 1480 2236" preserveAspectRatio="xMidYMid meet" version="1.0">
    <title>PIKE_BOYLOVEGIRLS_T41_012</title>
    <svg contentScriptType="text/ecmascript" zoomAndPan="magnify" contentStyleType="text/css" class="Page" preserveAspectRatio="xMidYMid meet" version="1.0">
        <image x="0" y="0" width="1480" xlink:href="../../../image/page/love/PIKE_BOYLOVEGIRLS_T41_012.jpg" xlink:type="simple" xlink:actuate="onLoad" height="2236" preserveAspectRatio="xMidYMid meet" xlink:show="embed"/>
        <metadata collectionTitle="Boy Love Girls" editorName="Lev Gleason" doublePage="false" website="http://comicbookplus.com/?dlid=31803" albumTitle="Boy Love Girls 41" drawerName="Jay Scott Pike" language="english" resolution="" ISBN="" readingDirection="leftToRight" writerName="Jay Scott Pike" releaseDate="" pageNumber="12"/>
    </svg>
	<style type="text/css" xml:space="preserve">
         * { stroke-width: 0; stroke-linejoin: round; }
        .Unclassified { fill: rgba(0,0,0,0); stroke: none; opacity: .8; visibility: hidden; }
        .Noise { fill: rgba(0,0,0,0); stroke: none; opacity: .8; visibility: hidden; }
        .Panel { fill: rgba(0,0,0,0); stroke: none; opacity: .8; visibility: visible; image-rendering: optimizeSpeed; }
        .Line { fill: rgba(0,0,0,0); stroke: none; opacity: .8; visibility: visible; image-rendering: optimizeSpeed; }
        .TextArea { fill: rgba(0,0,0,0); stroke: none; opacity: .8; visibility: visible; image-rendering: optimizeSpeed; }
        .Balloon { fill: rgba(0,0,0,0); stroke: none; opacity: .8; visibility: visible; image-rendering: optimizeSpeed; }
        .Letter { fill: rgba(0,0,0,0); stroke: none; opacity: .8; visibility: hidden; }
        .Character { fill: rgba(0,0,0,0); stroke: none; opacity: .8; visibility: visible; image-rendering: optimizeSpeed; }
        .Page { fill: rgba(0,0,0,0); stroke: none; opacity: .8; visibility: visible; }
        .linkSBSC { fill: rgba(0,0,0,0); stroke: none; opacity: .8; visibility: visible; }
        polygon:hover { stroke:red;stroke-width:2; } 
    </style>

    <!--panel1-->
    <svg contentScriptType="text/ecmascript" zoomAndPan="magnify" contentStyleType="text/css" class="Panel" preserveAspectRatio="xMidYMid meet" version="1.0" id="panel">
        <polygon points="35,94 482,92 480,776 34,778 35,94" id="PIKE_BOYLOVEGIRLS_T41_012_panel_0"
            tabindex="0" onclick="love_panel_1()">
            <metadata viewAngle="" uri="" shot="" area="" rank="1" fillingPcent=""/>
        </polygon>
    </svg>
    <!-- <svg contentScriptType="text/ecmascript" zoomAndPan="magnify" contentStyleType="text/css" class="Character" preserveAspectRatio="xMidYMid meet" version="1.0" id="character">
        <polygon points="27,284 193,284 193,782 27,782 27,284" id="PIKE_BOYLOVEGIRLS_T41_012_character_1"
           tabindex="0" onclick="setCharacterData(4,'CYNTHY','She turns her head and speaks to the man.','Unknown','A woman with black hair is wearing a long red dress.')">
            <metadata uri="" area="" fillingPcent=""/>
        </polygon>
        <polygon points="275,269 460,269 460,778 275,778 275,269" id="PIKE_BOYLOVEGIRLS_T41_012_character_0"
            tabindex="0" onclick="setCharacterData(4,'CURT','The man is holding a tennis racket with his left hand. His right hand is outstretched.','His face is neutral.','A man with yellow hair is wearing a white shirt, beige short pants and white shoes.')">
            <metadata uri="" area="" fillingPcent=""/>
        </polygon>
    </svg>    
    <svg contentScriptType="text/ecmascript" zoomAndPan="magnify" contentStyleType="text/css" class="Balloon" preserveAspectRatio="xMidYMid meet" version="1.0" id="balloon">
        <polygon points="33,114 54,92 229,92 239,107 253,128 258,147 258,166 251,194 229,220 205,236 174,244 167,245 156,286 150,257 146,250 93,244 57,232 32,211 33,114" id="PIKE_BOYLOVEGIRLS_T41_012_balloon_0"
            tabindex="0" onclick="setBalloonData(5, 'CURT! OH... I FORGOT WE WERE GOING TO PLAY TENNIS!')">
            <metadata borderStyle="smooth" tailTip="156,286" boundingBox="" tailDirection="S" rank="1"/>
        </polygon>
        <polygon points="245,115 272,90 470,92 486,105 484,222 461,241 396,260 346,261 321,260 316,274 317,285 305,275 302,259 273,245 255,233 241,211 245,115" id="PIKE_BOYLOVEGIRLS_T41_012_balloon_1"
            tabindex="0" onclick="setBalloonData(0, 'WELL... OKAY, HONEY! I’D JUST AS SOON GO FOR A DRIVE, ANYWAY!')">
            <metadata borderStyle="smooth" tailTip="317,285" boundingBox="" tailDirection="S" rank="2"/>
        </polygon>
    </svg> -->
    <!--panel2-->
    <svg contentScriptType="text/ecmascript" zoomAndPan="magnify" contentStyleType="text/css" class="Panel" preserveAspectRatio="xMidYMid meet" version="1.0" id="panel">
        <polygon points="506,146 943,144 945,775 506,776 506,146" id="PIKE_BOYLOVEGIRLS_T41_012_panel_1"
            tabindex="1" onclick="love_panel_2()">
            <metadata viewAngle="" uri="" shot="" area="" rank="2" fillingPcent=""/>
        </polygon>
    </svg>
    <!-- <svg contentScriptType="text/ecmascript" zoomAndPan="magnify" contentStyleType="text/css" class="Character" preserveAspectRatio="xMidYMid meet" version="1.0" id="character">
        <polygon points="501,351 730,351 730,727 501,727 501,351" id="PIKE_BOYLOVEGIRLS_T41_012_character_2"
            tabindex="1" onclick="setCharacterData(4,'CYNTHY','She is leaning her arm against the car door.','She seems worried.','')">
            <metadata uri="" area="" fillingPcent=""/>
        </polygon>
        <polygon points="646,316 873,316 873,609 646,609 646,316" id="PIKE_BOYLOVEGIRLS_T41_012_character_3"
             tabindex="1" onclick="setCharacterData(4,'CURT','He is driving and looking at the woman next to him.','He seems worried.','')">
            <metadata uri="" area="" fillingPcent=""/>
        </polygon>
    </svg>    
    <svg contentScriptType="text/ecmascript" zoomAndPan="magnify" contentStyleType="text/css" class="Balloon" preserveAspectRatio="xMidYMid meet" version="1.0" id="balloon">
        <polygon points="515,89 924,89 921,132 516,138 515,89" id="PIKE_BOYLOVEGIRLS_T41_012_balloon_2"
            tabindex="1" onclick="setBalloonData(5, 'I WAS IN A BAD MOOD, AND CURT SENSED IT IMMEDIATELY...')">
            <metadata borderStyle="other" tailTip="" boundingBox="" tailDirection="none" rank="3"/>
        </polygon>
        <polygon points="505,157 525,141 920,143 948,164 944,245 931,247 913,245 909,264 886,286 863,293 856,292 839,325 840,313 834,292 779,296 671,297 607,294 539,283 512,269 506,261 505,157" id="PIKE_BOYLOVEGIRLS_T41_012_balloon_3"
            tabindex="1" onclick="setBalloonData(0, 'YOU’VE SEEMED SO UNHAPPY LATELY, CUNTHY! I WISH THERE WAS SOMETHING I COULD DO! WISH YOU’D LET ME TRY AND MAKE YOU HAPPY!')">
            <metadata borderStyle="smooth" tailTip="839,325" boundingBox="" tailDirection="S" rank="4"/>
        </polygon>
    </svg> -->
    <!--panel3-->
    <svg contentScriptType="text/ecmascript" zoomAndPan="magnify" contentStyleType="text/css" class="Panel" preserveAspectRatio="xMidYMid meet" version="1.0" id="panel">
        <polygon points="970,91 1416,89 1421,773 969,773 970,91" id="PIKE_BOYLOVEGIRLS_T41_012_panel_2"
            tabindex="2" onclick="love_panel_3()">
            <metadata viewAngle="" uri="" shot="" area="" rank="3" fillingPcent=""/>
        </polygon>
    </svg>
    <!-- <svg contentScriptType="text/ecmascript" zoomAndPan="magnify" contentStyleType="text/css" class="Character" preserveAspectRatio="xMidYMid meet" version="1.0" id="character">
        <polygon points="1027,355 1213,355 1213,532 1027,532 1027,355" id="PIKE_BOYLOVEGIRLS_T41_012_character_4"
            tabindex="2" onclick="setCharacterData(4,'CURT','He  is talking to the woman.','He seems worried.')">
            <metadata uri="" area="" fillingPcent=""/>
        </polygon>
        <polygon points="1247,391 1412,391 1412,543 1247,543 1247,391" id="PIKE_BOYLOVEGIRLS_T41_012_character_5"
            tabindex="2" onclick="setCharacterData(4,'CYNTHY','She is talking to the man.','She seems worried.')">
            <metadata uri="" area="" fillingPcent=""/>
        </polygon>
    </svg>    
    <svg contentScriptType="text/ecmascript" zoomAndPan="magnify" contentStyleType="text/css" class="Balloon" preserveAspectRatio="xMidYMid meet" version="1.0" id="balloon">
        <polygon points="971,89 1421,89 1420,206 969,207 971,89" id="PIKE_BOYLOVEGIRLS_T41_012_balloon_4"
            tabindex="2" onclick="setBalloonData(5, 'I KNEW WHAT WAS COMING, BUT I DIDN’T WANT TO GIVE HIM AN ANSWER... NOT THEN. I TRIED TO CHANGE THE MOOD!')">
            <metadata borderStyle="smooth" tailTip="" boundingBox="" tailDirection="none" rank="5"/>
        </polygon>
        <polygon points="995,244 1002,224 1017,207 1026,202 1329,201 1349,213 1365,231 1370,248 1369,274 1358,296 1339,312 1308,326 1291,330 1277,333 1277,347 1276,360 1282,378 1268,365 1255,343 1251,337 1179,338 1110,337 1055,325 1021,303 995,266 995,244" id="PIKE_BOYLOVEGIRLS_T41_012_balloon_5"
            tabindex="2" onclick="setBalloonData(5, 'GOODNESS, CURT, YOU WORRY ABOUT ME TOO MUCH! C’MON, LET’S GO FOR A SWIM!')">
            <metadata borderStyle="smooth" tailTip="1282,378" boundingBox="" tailDirection="SE" rank="6"/>
        </polygon>
    </svg> -->
    <!--panel4-->
    <svg contentScriptType="text/ecmascript" zoomAndPan="magnify" contentStyleType="text/css" class="Panel" preserveAspectRatio="xMidYMid meet" version="1.0" id="panel">
        <polygon points="33,800 303,799 305,1471 33,1473 33,800" id="PIKE_BOYLOVEGIRLS_T41_012_panel_3"
            tabindex="3" onclick="love_panel_4()">
            <metadata viewAngle="" uri="" shot="" area="" rank="4" fillingPcent=""/>
        </polygon>
    </svg>
    <!-- <svg contentScriptType="text/ecmascript" zoomAndPan="magnify" contentStyleType="text/css" class="Character" preserveAspectRatio="xMidYMid meet" version="1.0" id="character">
        <polygon points="33,1217 260,1217 260,1469 33,1469 33,1217" id="PIKE_BOYLOVEGIRLS_T41_012_character_6"
             tabindex="3" onclick="setCharacterData(4,'CYNTHY','Unknown','She seems worried.')">
            <metadata uri="" area="" fillingPcent=""/>
        </polygon>
    </svg>    
    <svg contentScriptType="text/ecmascript" zoomAndPan="magnify" contentStyleType="text/css" class="Balloon" preserveAspectRatio="xMidYMid meet" version="1.0" id="balloon">
        <polygon points="37,847 294,855 291,1198 43,1195 37,847" id="PIKE_BOYLOVEGIRLS_T41_012_balloon_6"
            tabindex="3" onclick="setBalloonData(5, 'I LIKED CURT BUT I DIDN’T LOVE HIM, AND I KNEW THAT MARRYING HIM WOULD ONLY BE A SURRENDER TO MY PARENTS. I HAD TO LICK THIS PROBLEM MYSELF ... NOT GIVE IN TO IT! LATER THAT EVENING, WE DROPPED IN AT GLORIA’S. EVERYBODY GATHERED AT GLORIA’S..')">
            <metadata borderStyle="other" tailTip="" boundingBox="" tailDirection="none" rank="7"/>
        </polygon>
    </svg> -->
    <!--panel5-->
    <svg contentScriptType="text/ecmascript" zoomAndPan="magnify" contentStyleType="text/css" class="Panel" preserveAspectRatio="xMidYMid meet" version="1.0" id="panel">
        <polygon points="332,800 1421,795 1424,1462 333,1470 332,800" id="PIKE_BOYLOVEGIRLS_T41_012_panel_4"
             tabindex="4" onclick="love_panel_5()">
            <metadata viewAngle="" uri="" shot="" area="" rank="5" fillingPcent=""/>
        </polygon>
    </svg>
    <!-- <svg contentScriptType="text/ecmascript" zoomAndPan="magnify" contentStyleType="text/css" class="Character" preserveAspectRatio="xMidYMid meet" version="1.0" id="character">
        <polygon points="324,800 585,800 585,1475 324,1475 324,800" id="PIKE_BOYLOVEGIRLS_T41_012_character_7"
            tabindex="4" onclick="setCharacterData(4,'CURT','He is in conversation with the people.','He is smirking.','A man with yellow hair  is wearing an orange suit with green tie.')">
            <metadata uri="" area="" fillingPcent=""/>
        </polygon>
        <polygon points="484,924 726,924 726,1477 484,1477 484,924" id="PIKE_BOYLOVEGIRLS_T41_012_character_8"
            tabindex="4" onclick="setCharacterData(4,'CYNTHY','She is in conversation with the people, holding a blue coat in her left arm.','She is smiling.','A woman with black hair is wearing a long yellow dress.')">
            <metadata uri="" area="" fillingPcent=""/>
        </polygon>
        <polygon points="871,941 1155,941 1155,1473 871,1473 871,941" id="PIKE_BOYLOVEGIRLS_T41_012_character_9"
            tabindex="4" onclick="setCharacterData(4,'GLORIA’s HUSBAND','He is in conversation with the people, holding a wine glass with his right hand.','His eyebrows are raised.','A man with brown hair is wearing a grey suit with blue tie.')">
            <metadata uri="" area="" fillingPcent=""/>
        </polygon>
        <polygon points="1211,1148 1427,1148 1427,1469 1211,1469 1211,1148" id="PIKE_BOYLOVEGIRLS_T41_012_character_10"
            tabindex="4" onclick="setCharacterData(4,'GLORIA','She is in conversation with the people, holding a cigarette with her right hand.','She looks surprised.','A woman with gold hair is wearing a green dress.')">
            <metadata uri="" area="" fillingPcent=""/>
        </polygon>
    </svg>    
    <svg contentScriptType="text/ecmascript" zoomAndPan="magnify" contentStyleType="text/css" class="Balloon" preserveAspectRatio="xMidYMid meet" version="1.0" id="balloon">
        <polygon points="697,821 714,793 874,794 888,803 896,818 897,837 888,863 868,879 841,887 818,891 789,891 775,889 735,936 746,902 751,883 718,874 699,849 697,821" id="PIKE_BOYLOVEGIRLS_T41_012_balloon_7"
            tabindex="4" onclick="setBalloonData(5, 'HI, KIDS! WHAT’S UP?')">
            <metadata borderStyle="smooth" tailTip="735,936" boundingBox="" tailDirection="SW" rank="8"/>
        </polygon>
        <polygon points="920,849 926,819 938,804 948,794 1367,791 1377,798 1389,805 1392,815 1388,819 1400,818 1417,825 1424,833 1421,862 1404,878 1371,891 1299,896 1246,898 1193,897 1145,889 1135,902 1110,918 1070,926 1040,923 997,921 984,915 968,939 965,922 966,909 943,896 926,870 920,849" id="PIKE_BOYLOVEGIRLS_T41_012_balloon_8"
            tabindex="4" onclick="setBalloonData(2, 'SPARKLING WIT... BRILLIANT CONVERSATION... PENETRATING THOUGHT... WHAT DID YOU EXPECT?')">
            <metadata borderStyle="smooth" tailTip="968,939" boundingBox="" tailDirection="S" rank="9"/>
        </polygon>
        <polygon points="1094,942 1095,921 1144,888 1377,888 1395,897 1403,907 1409,923 1405,945 1393,961 1370,974 1337,983 1313,987 1287,989 1292,1025 1297,1066 1302,1106 1289,1076 1275,1036 1267,1004 1263,987 1205,983 1147,977 1115,966 1097,951 1094,942" id="PIKE_BOYLOVEGIRLS_T41_012_balloon_9"   tabindex="4" onclick="setBalloonData(3, 'HE MEANS IT’S THE USUAL DULL EVENING!')">
            <metadata borderStyle="smooth" tailTip="1302,1106" boundingBox="" tailDirection="SE" rank="10"/>
        </polygon>
    </svg> -->
    <!--panel6-->
    <svg contentScriptType="text/ecmascript" zoomAndPan="magnify" contentStyleType="text/css" class="Panel" preserveAspectRatio="xMidYMid meet" version="1.0" id="panel">
        <polygon points="34,1526 811,1523 815,2177 31,2183 34,1526" id="PIKE_BOYLOVEGIRLS_T41_012_panel_5"
            tabindex="5" onclick="love_panel_6()">
            <metadata viewAngle="" uri="" shot="" area="" rank="6" fillingPcent=""/>
        </polygon>
    </svg>
    <!-- <svg contentScriptType="text/ecmascript" zoomAndPan="magnify" contentStyleType="text/css" class="Character" preserveAspectRatio="xMidYMid meet" version="1.0" id="character">
        <polygon points="420,1834 634,1834 634,2180 420,2180 420,1834" id="PIKE_BOYLOVEGIRLS_T41_012_character_13"
             tabindex="5" onclick="setCharacterData(4,'CURT','He is sitting on a sofa, looking at the ground.','He seems worried and downcast.')">
            <metadata uri="" area="" fillingPcent=""/>
        </polygon>
        <polygon points="247,1834 478,1834 478,2181 247,2181 247,1834" id="PIKE_BOYLOVEGIRLS_T41_012_character_14"
            tabindex="5" onclick="setCharacterData(4,'GLORIA','She is sitting on the sofa with her arms crossed.','She is expressionless.')">
            <metadata uri="" area="" fillingPcent=""/>
        </polygon>
        <polygon points="29,1794 277,1794 277,2187 29,2187 29,1794" id="PIKE_BOYLOVEGIRLS_T41_012_character_15"
            tabindex="5" onclick="setCharacterData(4,'GLORIA’s HUSBAND','He is sitting on a sofa with his arms around the sofa.','He is sympathetic.')">
            <metadata uri="" area="" fillingPcent=""/>
        </polygon>
        <polygon points="636,1744 817,1744 817,2183 636,2183 636,1744" id="PIKE_BOYLOVEGIRLS_T41_012_character_12"
            tabindex="5" onclick="setCharacterData(4,'CYNTHY','She is talking to the three people in front.','She seems to be irritated .')">
            <metadata uri="" area="" fillingPcent=""/>
        </polygon>
    </svg>    
    <svg contentScriptType="text/ecmascript" zoomAndPan="magnify" contentStyleType="text/css" class="Balloon" preserveAspectRatio="xMidYMid meet" version="1.0" id="balloon">
        <polygon points="174,1492 656,1492 660,1519 178,1517 174,1492" id="PIKE_BOYLOVEGIRLS_T41_012_balloon_10"
            tabindex="5" onclick="setBalloonData(4, 'THE CONVERSATION WANDERED ON AIMLESSLY.....')">
            <metadata borderStyle="other" tailTip="" boundingBox="" tailDirection="none" rank="11"/>
        </polygon>
        <polygon points="29,1552 58,1526 310,1526 324,1541 335,1567 338,1587 335,1618 319,1645 299,1661 274,1676 244,1683 239,1716 222,1779 223,1758 215,1688 161,1687 103,1681 54,1666 31,1648 29,1552" id="PIKE_BOYLOVEGIRLS_T41_012_balloon_11"
            tabindex="5" onclick="setBalloonData(2, 'MY OLD MAN SAYS I'M GOING TO HAVE TO TAKE THAT ADVERTISING JOB IN NEW YORK!')">
            <metadata borderStyle="smooth" tailTip="222,1779" boundingBox="" tailDirection="S" rank="12"/>
        </polygon>        
        <polygon points="319,1536 333,1524 815,1521 813,1597 772,1622 709,1631 639,1631 582,1629 552,1624 548,1646 518,1673 478,1683 462,1685 465,1742 479,1798 469,1785 451,1754 438,1711 432,1687 392,1681 350,1670 323,1654 316,1644 319,1536" id="PIKE_BOYLOVEGIRLS_T41_012_balloon_12"
            tabindex="5" onclick="setBalloonData(0, 'YEAH, ME, TOO! HE’LL TAKE ME ON AT THE BANK, BUT I THINK I’D RATHER WORK IN MY UNCLE’S PUBLISHING HOUSE!')">
            <metadata borderStyle="smooth" tailTip="479,1798" boundingBox="" tailDirection="S" rank="13"/>
        </polygon>
        <polygon points="495,1690 498,1681 549,1621 755,1625 767,1630 770,1636 772,1646 781,1646 795,1645 809,1651 814,1654 813,1708 787,1734 751,1746 709,1750 662,1752 622,1752 625,1779 630,1801 646,1827 620,1809 601,1773 593,1754 547,1744 505,1721 495,1690" id="PIKE_BOYLOVEGIRLS_T41_012_balloon_13"
            tabindex="5" onclick="setBalloonData(5, 'DIT IT EVER OCCUR TO YOU THAT YOU’RE LUCKY TO GET JOBS?')">
            <metadata borderStyle="smooth" tailTip="646,1827" boundingBox="" tailDirection="SE" rank="14"/>
        </polygon>
    </svg> -->
    <!--panel7-->
    <svg contentScriptType="text/ecmascript" zoomAndPan="magnify" contentStyleType="text/css" class="Panel" preserveAspectRatio="xMidYMid meet" version="1.0" id="panel">
        <polygon points="836,1493 1426,1488 1431,2170 839,2180 836,1493" id="PIKE_BOYLOVEGIRLS_T41_012_panel_6"
            tabindex="6" onclick="love_panel_7()">
            <metadata viewAngle="" uri="" shot="" area="" rank="7" fillingPcent=""/>
        </polygon>
    </svg>
    <!-- <svg contentScriptType="text/ecmascript" zoomAndPan="magnify" contentStyleType="text/css" class="Character" preserveAspectRatio="xMidYMid meet" version="1.0" id="character">
        <polygon points="993,1685 1256,1685 1256,2178 993,2178 993,1685" id="PIKE_BOYLOVEGIRLS_T41_012_character_11"
            tabindex="6" onclick="setCharacterData(4,'CYNTHY','She is standing looking at the window.','She seems to be outraged')">
            <metadata uri="" area="" fillingPcent=""/>
        </polygon>
    </svg>    
    <svg contentScriptType="text/ecmascript" zoomAndPan="magnify" contentStyleType="text/css" class="Balloon" preserveAspectRatio="xMidYMid meet" version="1.0" id="balloon">
         <polygon points="836,1656 834,1491 1085,1487 1107,1501 1125,1529 1132,1559 1126,1591 1112,1613 1096,1622 1085,1622 1091,1633 1080,1662 1048,1682 1003,1691 955,1692 919,1689 889,1721 855,1749 837,1757 837,1743 865,1717 882,1692 889,1682 854,1670 836,1656" id="PIKE_BOYLOVEGIRLS_T41_012_balloon_14"
             tabindex="6" onclick="setBalloonData(0, 'LUCKY? MY OLD MAN’S GOT ENOUGH DOUGH TO SUPPORT HALF THIS TOWN! WHY SHOULD I WANT TO WORK?')">
            <metadata borderStyle="smooth" tailTip="837,1757" boundingBox="" tailDirection="SW" rank="15"/>
        </polygon>
        <polygon points="1121,1517 1132,1501 1154,1487 1350,1487 1371,1499 1386,1522 1390,1542 1381,1566 1359,1586 1341,1598 1307,1614 1275,1616 1245,1614 1239,1622 1225,1623 1216,1631 1188,1679 1192,1647 1190,1628 1158,1619 1135,1607 1121,1597 1121,1517" id="PIKE_BOYLOVEGIRLS_T41_012_balloon_15"
            tabindex="6" onclick="setBalloonData(5, 'IF YOU DON’T KNOW, I’M NOT GOING TO TELL YOU!')">
            <metadata borderStyle="smooth" tailTip="1188,1679" boundingBox="" tailDirection="S" rank="16"/>
        </polygon>
        <polygon points="1362,1592 1410,1605 1429,1618 1430,1691 1408,1707 1375,1713 1351,1715 1340,1717 1341,1734 1351,1757 1368,1782 1346,1768 1326,1744 1315,1718 1278,1712 1244,1683 1236,1650 1243,1624 1252,1615 1362,1592 1362,1592 1362,1592" id="PIKE_BOYLOVEGIRLS_T41_012_balloon_16"
            tabindex="6" onclick="setBalloonData(2, 'ARE YOU SPEAKING TO ME?')">
            <metadata borderStyle="smooth" tailTip="1368,1782" boundingBox="" tailDirection="SW" rank="17"/>
        </polygon>
    </svg> -->
<metadata method="GroundTruth" lastModificationDate="Sun Feb 09 11:16:15 CET 2014" lastStepModified="Balloon_Rank"/>
<script type="text/javascript" xlink:href="https://sdk.amazonaws.com/js/aws-sdk-2.410.0.min.js" xlink:actuate="onLoad" xlink:show="other" xlink:type="simple"></script>
<script type="text/javascript" xlink:href="../../../../java/auto_Polly.js" xlink:actuate="onLoad" xlink:show="other" xlink:type="simple"> </script>
<script type="text/javascript" xlink:href="../../../../java/auto_pollyData.js" xlink:actuate="onLoad" xlink:show="other" xlink:type="simple"> </script>
<script type="text/javascript" xlink:href="../../../../java/toggleEvent.js" xlink:actuate="onLoad" xlink:show="other" xlink:type="simple"> </script>
<script type="text/javascript" xlink:href="../../../../java/auto_reader_love.js" xlink:actuate="onLoad" xlink:show="other" xlink:type="simple"> </script>
</svg>