<?xml version="1.0" encoding="UTF-8" standalone="no"?>
<svg onload="changeData()" xmlns="http://www.w3.org/2000/svg" xmlns:xlink="http://www.w3.org/1999/xlink" contentScriptType="text/ecmascript" width="25em" zoomAndPan="magnify" contentStyleType="text/css" height="auto" viewBox="-25 0 750 500" preserveAspectRatio="xMidYMid meet" version="1.0">
    <title>PIKE_BOYLOVEGIRLS_T41_012</title>
    <svg contentScriptType="text/ecmascript" zoomAndPan="magnify" contentStyleType="text/css" class="Page" preserveAspectRatio="xMidYMid meet" version="1.0">
        <image x="0" y="0" width="700" xlink:href="../../../image/panel/love/PIKE_BOYLOVEGIRLS_T41_Panel_05.jpg" xlink:type="simple" xlink:actuate="onLoad" height="517" preserveAspectRatio="xMidYMid meet" xlink:show="embed"/>
        <metadata collectionTitle="Boy Love Girls" editorName="Lev Gleason" doublePage="false" website="http://comicbookplus.com/?dlid=31803" albumTitle="Boy Love Girls 41" drawerName="Jay Scott Pike" language="english" resolution="" ISBN="" readingDirection="leftToRight" writerName="Jay Scott Pike" releaseDate="" pageNumber="12"/>
    </svg>
	<style type="text/css" xml:space="preserve">
         * { stroke-width: 0; stroke-linejoin: round; }
        .Unclassified { fill: rgba(0,0,0,0); stroke: none; opacity: .8; visibility: hidden; }
        .Noise { fill: rgba(0,0,0,0); stroke: none; opacity: .8; visibility: hidden; }
        .Panel { fill: rgba(0,0,0,0); stroke: none; opacity: .8; visibility: visible; image-rendering: optimizeSpeed; }
        .Line { fill: rgba(0,0,0,0); stroke: none; opacity: .8; visibility: visible; image-rendering: optimizeSpeed; }
        .TextArea { fill: rgba(0,0,0,0); stroke: none; opacity: .8; visibility: visible; image-rendering: optimizeSpeed; }
        .Balloon { fill: rgba(0,0,0,0); stroke: none; opacity: .8; visibility: visible; image-rendering: optimizeSpeed; }
        .Letter { fill: rgba(0,0,0,0); stroke: none; opacity: .8; visibility: hidden; }
        .Character { fill: rgba(0,0,0,0); stroke: none; opacity: .8; visibility: visible; image-rendering: optimizeSpeed; }
        .Page { fill: rgba(0,0,0,0); stroke: none; opacity: .8; visibility: visible; }
        .linkSBSC { fill: rgba(0,0,0,0); stroke: none; opacity: .8; visibility: visible; }
        polygon:hover { stroke:red;stroke-width:2; } 
    </style>
     <svg contentScriptType="text/ecmascript" zoomAndPan="magnify" contentStyleType="text/css" class="Panel" preserveAspectRatio="xMidYMid meet" viewBox="369 690 1010 890" version="1.0" id="panel">
        <polygon points="332,800 1421,795 1424,1462 333,1470 332,800" id="PIKE_BOYLOVEGIRLS_T41_012_panel_4"
             tabindex="4" onclick="setPanelData(4, 'Panel Five','The place is in front of the house where the party is held.','CURT and CYNTHY stand on the left, GLORIA sits on the right, and her husband stands on the middle.')">
            <metadata viewAngle="" uri="" shot="" area="" rank="5" fillingPcent=""/>
        </polygon>
    </svg>
    <svg contentScriptType="text/ecmascript" zoomAndPan="magnify" contentStyleType="text/css" class="Character" preserveAspectRatio="xMidYMid meet" viewBox="369 690 1010 890" version="1.0" id="character">
        <polygon points="324,800 585,800 585,1475 324,1475 324,800" id="PIKE_BOYLOVEGIRLS_T41_012_character_7"
            tabindex="4" onclick="setCharacterData(4,'CURT','He is in conversation with the people.','He is smirking.','A man with yellow hair  is wearing an orange suit with green tie.')">
            <metadata uri="" area="" fillingPcent=""/>
        </polygon>
        <polygon points="484,924 726,924 726,1477 484,1477 484,924" id="PIKE_BOYLOVEGIRLS_T41_012_character_8"
            tabindex="4" onclick="setCharacterData(4,'CYNTHY','She is in conversation with the people, holding a blue coat in her left arm.','She is smiling.','A woman with black hair is wearing a long yellow dress.')">
            <metadata uri="" area="" fillingPcent=""/>
        </polygon>
        <polygon points="871,941 1155,941 1155,1473 871,1473 871,941" id="PIKE_BOYLOVEGIRLS_T41_012_character_9"
            tabindex="4" onclick="setCharacterData(4,'GLORIA’s HUSBAND','He is in conversation with the people, holding a wine glass with his right hand.','His eyebrows are raised.','A man with brown hair is wearing a grey suit with blue tie.')">
            <metadata uri="" area="" fillingPcent=""/>
        </polygon>
        <polygon points="1211,1148 1427,1148 1427,1469 1211,1469 1211,1148" id="PIKE_BOYLOVEGIRLS_T41_012_character_10"
            tabindex="4" onclick="setCharacterData(4,'GLORIA','She is in conversation with the people, holding a cigarette with her right hand.','She looks surprised.','A woman with gold hair is wearing a green dress.')">
            <metadata uri="" area="" fillingPcent=""/>
        </polygon>
    </svg>
    <svg contentScriptType="text/ecmascript" zoomAndPan="magnify" contentStyleType="text/css" class="Balloon" preserveAspectRatio="xMidYMid meet" viewBox="369 690 1010 890" version="1.0" id="balloon">
         <polygon points="697,821 714,793 874,794 888,803 896,818 897,837 888,863 868,879 841,887 818,891 789,891 775,889 735,936 746,902 751,883 718,874 699,849 697,821" id="PIKE_BOYLOVEGIRLS_T41_012_balloon_7"
            tabindex="4" onclick="setBalloonData(5, 'HI, KIDS! WHAT’S UP?')">
            <metadata borderStyle="smooth" tailTip="735,936" boundingBox="" tailDirection="SW" rank="8"/>
        </polygon>
        <polygon points="920,849 926,819 938,804 948,794 1367,791 1377,798 1389,805 1392,815 1388,819 1400,818 1417,825 1424,833 1421,862 1404,878 1371,891 1299,896 1246,898 1193,897 1145,889 1135,902 1110,918 1070,926 1040,923 997,921 984,915 968,939 965,922 966,909 943,896 926,870 920,849" id="PIKE_BOYLOVEGIRLS_T41_012_balloon_8"
            tabindex="4" onclick="setBalloonData(2, 'SPARKLING WIT... BRILLIANT CONVERSATION... PENETRATING THOUGHT... WHAT DID YOU EXPECT?')">
            <metadata borderStyle="smooth" tailTip="968,939" boundingBox="" tailDirection="S" rank="9"/>
        </polygon>
        <polygon points="1094,942 1095,921 1144,888 1377,888 1395,897 1403,907 1409,923 1405,945 1393,961 1370,974 1337,983 1313,987 1287,989 1292,1025 1297,1066 1302,1106 1289,1076 1275,1036 1267,1004 1263,987 1205,983 1147,977 1115,966 1097,951 1094,942" id="PIKE_BOYLOVEGIRLS_T41_012_balloon_9"   tabindex="4" onclick="setBalloonData(3, 'HE MEANS IT’S THE USUAL DULL EVENING!')">
            <metadata borderStyle="smooth" tailTip="1302,1106" boundingBox="" tailDirection="SE" rank="10"/>
        </polygon>
    </svg>
<metadata method="GroundTruth" lastModificationDate="Sun Feb 09 11:16:15 CET 2014" lastStepModified="Balloon_Rank"/>
<script type="text/javascript" xlink:href="https://sdk.amazonaws.com/js/aws-sdk-2.410.0.min.js" xlink:actuate="onLoad" xlink:show="other" xlink:type="simple"></script>
<script type="text/javascript" xlink:href="../../../../java/polly.js" xlink:actuate="onLoad" xlink:show="other" xlink:type="simple"> </script>
<script type="text/javascript" xlink:href="../../../../java/pollyData.js" xlink:actuate="onLoad" xlink:show="other" xlink:type="simple"> </script>
<script type="text/javascript" xlink:href="../../../../java/toggleEvent.js" xlink:actuate="onLoad" xlink:show="other" xlink:type="simple"> </script>
</svg>