<?xml version="1.0" encoding="UTF-8" standalone="no"?>
<svg onload="changeData()" xmlns="http://www.w3.org/2000/svg" xmlns:xlink="http://www.w3.org/1999/xlink" contentScriptType="text/ecmascript" width="25em" zoomAndPan="magnify" contentStyleType="text/css" height="auto" viewBox="-20 0 700 500" preserveAspectRatio="xMidYMid meet" version="1.0">
    <title>PIKE_BOYLOVEGIRLS_T41_012</title>
    <svg contentScriptType="text/ecmascript" zoomAndPan="magnify" contentStyleType="text/css" class="Page" preserveAspectRatio="xMidYMid meet" version="1.0">
        <image x="0" y="48" width="650" xlink:href="../../../image/panel/love/PIKE_BOYLOVEGIRLS_T41_Panel_06.jpg" xlink:type="simple" xlink:actuate="onLoad" height="450" preserveAspectRatio="xMidYMid meet" xlink:show="embed"/>
        <metadata collectionTitle="Boy Love Girls" editorName="Lev Gleason" doublePage="false" website="http://comicbookplus.com/?dlid=31803" albumTitle="Boy Love Girls 41" drawerName="Jay Scott Pike" language="english" resolution="" ISBN="" readingDirection="leftToRight" writerName="Jay Scott Pike" releaseDate="" pageNumber="12"/>
    </svg>
	<style type="text/css" xml:space="preserve">
         * { stroke-width: 0; stroke-linejoin: round; }
        .Unclassified { fill: rgba(0,0,0,0); stroke: none; opacity: .8; visibility: hidden; }
        .Noise { fill: rgba(0,0,0,0); stroke: none; opacity: .8; visibility: hidden; }
        .Panel { fill: rgba(0,0,0,0); stroke: none; opacity: .8; visibility: visible; image-rendering: optimizeSpeed; }
        .Line { fill: rgba(0,0,0,0); stroke: none; opacity: .8; visibility: visible; image-rendering: optimizeSpeed; }
        .TextArea { fill: rgba(0,0,0,0); stroke: none; opacity: .8; visibility: visible; image-rendering: optimizeSpeed; }
        .Balloon { fill: rgba(0,0,0,0); stroke: none; opacity: .8; visibility: visible; image-rendering: optimizeSpeed; }
        .Letter { fill: rgba(0,0,0,0); stroke: none; opacity: .8; visibility: hidden; }
        .Character { fill: rgba(0,0,0,0); stroke: none; opacity: .8; visibility: visible; image-rendering: optimizeSpeed; }
        .Page { fill: rgba(0,0,0,0); stroke: none; opacity: .8; visibility: visible; }
        .linkSBSC { fill: rgba(0,0,0,0); stroke: none; opacity: .8; visibility: visible; }
        polygon:hover { stroke:red;stroke-width:2; } 
    </style>
    <svg contentScriptType="text/ecmascript" zoomAndPan="magnify" contentStyleType="text/css" class="Panel" preserveAspectRatio="xMidYMid meet" viewBox="72 1480 700 710" version="1.0" id="panel">
        <polygon points="34,1526 811,1523 815,2177 31,2183 34,1526" id="PIKE_BOYLOVEGIRLS_T41_012_panel_5"
            tabindex="5" onclick="setPanelData(4, 'Panel Six','The place is in front of the house where the party is held.','From the left, CURT, Gloria, and her husband sit on the couch in series, while CYNTHY sits separately facing them on the right.')">
            <metadata viewAngle="" uri="" shot="" area="" rank="6" fillingPcent=""/>
        </polygon>
    </svg>
    <svg contentScriptType="text/ecmascript" zoomAndPan="magnify" contentStyleType="text/css" class="Character" preserveAspectRatio="xMidYMid meet" viewBox="72 1480 700 710" version="1.0" id="character">
        <polygon points="420,1834 634,1834 634,2180 420,2180 420,1834" id="PIKE_BOYLOVEGIRLS_T41_012_character_13"
             tabindex="5" onclick="setCharacterData(4,'CURT','He is sitting on a sofa, looking at the ground.','He seems worried and downcast.')">
            <metadata uri="" area="" fillingPcent=""/>
        </polygon>
        <polygon points="247,1834 478,1834 478,2181 247,2181 247,1834" id="PIKE_BOYLOVEGIRLS_T41_012_character_14"
            tabindex="5" onclick="setCharacterData(4,'GLORIA','She is sitting on the sofa with her arms crossed.','She is expressionless.')">
            <metadata uri="" area="" fillingPcent=""/>
        </polygon>
        <polygon points="29,1794 277,1794 277,2187 29,2187 29,1794" id="PIKE_BOYLOVEGIRLS_T41_012_character_15"
            tabindex="5" onclick="setCharacterData(4,'GLORIA’s HUSBAND','He is sitting on a sofa with his arms around the sofa.','He is sympathetic.')">
            <metadata uri="" area="" fillingPcent=""/>
        </polygon>
        <polygon points="636,1744 817,1744 817,2183 636,2183 636,1744" id="PIKE_BOYLOVEGIRLS_T41_012_character_12"
            tabindex="5" onclick="setCharacterData(4,'CYNTHY','She is talking to the three people in front.','She seems to be irritated .')">
            <metadata uri="" area="" fillingPcent=""/>
        </polygon>
    </svg>
    <svg contentScriptType="text/ecmascript" zoomAndPan="magnify" contentStyleType="text/css" class="Balloon" preserveAspectRatio="xMidYMid meet" viewBox="72 1480 700 710" version="1.0" id="balloon">
        <polygon points="174,1492 656,1492 660,1519 178,1517 174,1492" id="PIKE_BOYLOVEGIRLS_T41_012_balloon_10"
            tabindex="5" onclick="setBalloonData(4, 'THE CONVERSATION WANDERED ON AIMLESSLY.....')">
            <metadata borderStyle="other" tailTip="" boundingBox="" tailDirection="none" rank="11"/>
        </polygon>
        <polygon points="29,1552 58,1526 310,1526 324,1541 335,1567 338,1587 335,1618 319,1645 299,1661 274,1676 244,1683 239,1716 222,1779 223,1758 215,1688 161,1687 103,1681 54,1666 31,1648 29,1552" id="PIKE_BOYLOVEGIRLS_T41_012_balloon_11"
            tabindex="5" onclick="setBalloonData(2, 'MY OLD MAN SAYS I'M GOING TO HAVE TO TAKE THAT ADVERTISING JOB IN NEW YORK!')">
            <metadata borderStyle="smooth" tailTip="222,1779" boundingBox="" tailDirection="S" rank="12"/>
        </polygon>        
        <polygon points="319,1536 333,1524 815,1521 813,1597 772,1622 709,1631 639,1631 582,1629 552,1624 548,1646 518,1673 478,1683 462,1685 465,1742 479,1798 469,1785 451,1754 438,1711 432,1687 392,1681 350,1670 323,1654 316,1644 319,1536" id="PIKE_BOYLOVEGIRLS_T41_012_balloon_12"
            tabindex="5" onclick="setBalloonData(0, 'YEAH, ME, TOO! HE’LL TAKE ME ON AT THE BANK, BUT I THINK I’D RATHER WORK IN MY UNCLE’S PUBLISHING HOUSE!')">
            <metadata borderStyle="smooth" tailTip="479,1798" boundingBox="" tailDirection="S" rank="13"/>
        </polygon>
        <polygon points="495,1690 498,1681 549,1621 755,1625 767,1630 770,1636 772,1646 781,1646 795,1645 809,1651 814,1654 813,1708 787,1734 751,1746 709,1750 662,1752 622,1752 625,1779 630,1801 646,1827 620,1809 601,1773 593,1754 547,1744 505,1721 495,1690" id="PIKE_BOYLOVEGIRLS_T41_012_balloon_13"
            tabindex="5" onclick="setBalloonData(5, 'DIT IT EVER OCCUR TO YOU THAT YOU’RE LUCKY TO GET JOBS?')">
            <metadata borderStyle="smooth" tailTip="646,1827" boundingBox="" tailDirection="SE" rank="14"/>
        </polygon>
    </svg>
<metadata method="GroundTruth" lastModificationDate="Sun Feb 09 11:16:15 CET 2014" lastStepModified="Balloon_Rank"/>
<script type="text/javascript" xlink:href="https://sdk.amazonaws.com/js/aws-sdk-2.410.0.min.js" xlink:actuate="onLoad" xlink:show="other" xlink:type="simple"></script>
<script type="text/javascript" xlink:href="../../../../java/polly.js" xlink:actuate="onLoad" xlink:show="other" xlink:type="simple"> </script>
<script type="text/javascript" xlink:href="../../../../java/pollyData.js" xlink:actuate="onLoad" xlink:show="other" xlink:type="simple"> </script>
<script type="text/javascript" xlink:href="../../../../java/toggleEvent.js" xlink:actuate="onLoad" xlink:show="other" xlink:type="simple"> </script>
</svg>