<?xml version="1.0" encoding="UTF-8" standalone="no"?>
<svg onload="changeData()" xmlns="http://www.w3.org/2000/svg" xmlns:xlink="http://www.w3.org/1999/xlink" contentScriptType="text/ecmascript" width="25em" zoomAndPan="magnify" contentStyleType="text/css" height="auto" viewBox="-10 0 950 800" preserveAspectRatio="xMidYMid meet" version="1.0">
    <title>FOX_CHILLINTALES_T17_006</title>
    <svg contentScriptType="text/ecmascript" zoomAndPan="magnify" contentStyleType="text/css" class="Page" preserveAspectRatio="xMidYMid meet" version="1.0">
        <image x="0" y="0" width="920" xlink:href="../../../image/strip/fox/FOX_CHILLINTALES_T17_Scrip_01.jpg" xlink:type="simple" xlink:actuate="onLoad" height="950" preserveAspectRatio="xMidYMid meet" xlink:show="embed"/>
        <metadata collectionTitle="Chilling Tales" editorName="Youthful Magazines" doublePage="false" website="http://comicbookplus.com/?dlid=23923" albumTitle="Chilling Tales 17 Geo" drawerName="Matt Fox" language="english" resolution="" ISBN="" readingDirection="leftToRight" writerName="Matt Fox" releaseDate="" pageNumber="6"/>
    </svg>
	<style type="text/css" xml:space="preserve">
        * { stroke-width: 0; stroke-linejoin: round; }
        .Unclassified { fill: rgba(0,0,0,0); stroke: none; opacity: .8; visibility: hidden; }
        .Noise { fill: rgba(0,0,0,0); stroke: none; opacity: .8; visibility: hidden; }
        .Panel { fill: rgba(0,0,0,0); stroke: none; opacity: .8; visibility: visible; image-rendering: optimizeSpeed; }
        .Line { fill: rgba(0,0,0,0); stroke: none; opacity: .8; visibility: visible; image-rendering: optimizeSpeed; }
        .TextArea { fill: rgba(0,0,0,0); stroke: none; opacity: .8; visibility: visible; image-rendering: optimizeSpeed; }
        .Balloon { fill: rgba(0,0,0,0); stroke: none; opacity: .8; visibility: visible; image-rendering: optimizeSpeed; }
        .Letter { fill: rgba(0,0,0,0); stroke: none; opacity: .8; visibility: hidden; }
        .Character { fill: rgba(0,0,0,0); stroke: none; opacity: .8; visibility: visible; image-rendering: optimizeSpeed; }
        .Page { fill: rgba(0,0,0,0); stroke: none; opacity: .8; visibility: visible; }
        .linkSBSC { fill: rgba(0,0,0,0); stroke: none; opacity: .8; visibility: visible; }
        polygon:hover { stroke:red;stroke-width:2; } 
    </style>
      <!--panel1-->
    <svg contentScriptType="text/ecmascript" zoomAndPan="magnify" contentStyleType="text/css" class="Panel" preserveAspectRatio="xMidYMid meet" height="940" width="900" viewBox="0 0 1250 940" version="1.0" id="panel">
        <polygon points="32,53 416,52 429,901 40,902 32,53" id="FOX_CHILLINTALES_T17_006_panel_0" 
            tabindex="0" onclick="setPanelData(3, 'Panel One','In a wood with trees.','STEENIE’s full body is at the center')">
            <metadata viewAngle="" uri="" shot="" area="" rank="1" fillingPcent=""/>
        </polygon>
    </svg>
    <svg contentScriptType="text/ecmascript" zoomAndPan="magnify" contentStyleType="text/css" class="Character" preserveAspectRatio="xMidYMid meet" height="940" width="900" viewBox="0 0 1250 940" version="1.0" id="character">
        <polygon points="106,424 267,424 267,856 106,856 106,424" id="FOX_CHILLINTALES_T17_006_character_0" 
        tabindex="0" onclick="setCharacterData(3,'STEENIE','He is walking in the wood while touching his forehead with his left hand.','He seems like he has a headache.','A man has brown hair, wearing a yellow shirt with a red cloak.')">
            <metadata ID="" rank=""/>
        </polygon>
    </svg>
    <svg contentScriptType="text/ecmascript" zoomAndPan="magnify" contentStyleType="text/css" class="Balloon" preserveAspectRatio="xMidYMid meet" height="940" width="900" viewBox="0 0 1250 940" version="1.0" id="balloon">
       <polygon points="31,53 420,53 421,165 413,169 420,170 415,204 359,204 353,200 350,204 289,205 286,199 278,204 32,204 31,53" id="FOX_CHILLINTALES_T17_006_balloon_0" 
        tabindex="0" onclick="setBalloonData(3,'MY GRANDFATHER, STEENIE, FOR-TIFIED HIMSELF WITH BRANDY AND MAKE HIS WAY HOME THROUGH THE DARK WOODS OF HAUNTED PITMURKIE...')">
            <metadata borderStyle="smooth" tailTip="" boundingBox="" tailDirection="none" rank="1"/>
        </polygon>
        <polygon points="114,206 137,204 193,205 275,203 286,198 293,203 351,204 356,201 363,205 408,204 417,210 424,212 430,226 429,242 424,257 413,267 392,273 382,275 392,281 397,287 392,298 376,307 362,311 343,314 326,317 305,319 281,321 257,321 241,323 238,339 230,359 217,385 223,354 226,331 222,316 205,317 186,319 157,316 139,315 118,310 104,303 100,293 107,286 111,282 104,281 93,275 88,253 90,232 100,218 114,206" id="FOX_CHILLINTALES_T17_006_balloon_1" 
        tabindex="0" onclick="setBalloonData(0,'AYE! I AM LOST! MY HOME WILL BE TAKEN--IS ME!')">
            <metadata borderStyle="smooth" tailTip="217,385" boundingBox="" tailDirection="SW" rank="2"/>
        </polygon>
    </svg>
    <!--panel2-->
     <svg contentScriptType="text/ecmascript" zoomAndPan="magnify" contentStyleType="text/css" class="Panel" preserveAspectRatio="xMidYMid meet" height="940" width="900" viewBox="0 0 1250 940" version="1.0" id="panel">
        <polygon points="32,53 416,52 429,901 40,902 32,53" id="FOX_CHILLINTALES_T17_006_panel_0" 
            tabindex="0" onclick="setPanelData(3, 'Panel One','In a wood with trees.','STEENIE’s full body is at the center')">
            <metadata viewAngle="" uri="" shot="" area="" rank="1" fillingPcent=""/>
        </polygon>
    </svg>
    <svg contentScriptType="text/ecmascript" zoomAndPan="magnify" contentStyleType="text/css" class="Character" preserveAspectRatio="xMidYMid meet" height="940" width="900" viewBox="0 0 1250 940" version="1.0" id="character">
         <polygon points="445,304 625,304 625,784 445,784 445,304" id="FOX_CHILLINTALES_T17_006_character_1"
        tabindex="1" onclick="setCharacterData(3,'STEENIE','He is asking a question to a man.','Unknown')">
            <metadata ID="" rank=""/>
        </polygon>
        <polygon points="676,287 828,287 828,748 676,748 676,287" id="FOX_CHILLINTALES_T17_006_character_2"
        tabindex="1" onclick="setCharacterData(3,'A Stranger','He stretches his right hand forward towards the man and answers his question.','He is serious.','A man is wearing a blue long hooded cloak.')">
            <metadata ID="" rank=""/>
        </polygon>
    </svg>
    <svg contentScriptType="text/ecmascript" zoomAndPan="magnify" contentStyleType="text/css" class="Balloon" preserveAspectRatio="xMidYMid meet" height="940" width="900" viewBox="0 0 1250 940" version="1.0" id="balloon">
        <polygon points="443,59 658,57 767,59 834,60 834,121 443,124 443,59" id="FOX_CHILLINTALES_T17_006_balloon_2"
            tabindex="1" onclick="setBalloonData(3,'SUDDENLY, FROM A DARK THICKET, A STRANGER STEPPED BEFORE HIM...')">
            <metadata borderStyle="other" tailTip="" boundingBox="" tailDirection="none" rank="3"/>
        </polygon>
        <polygon points="475,125 602,124 615,129 625,134 628,140 629,147 626,153 623,157 613,161 621,165 623,170 620,179 617,181 604,190 590,196 576,199 564,200 553,200 547,199 546,205 547,216 547,224 548,232 549,242 551,249 552,265 543,251 538,236 536,226 532,217 529,203 525,198 511,197 501,196 489,194 482,193 471,189 465,182 462,172 465,161 468,157 475,153 464,152 454,151 456,143 462,135 475,125" id="FOX_CHILLINTALES_T17_006_balloon_3"
            tabindex="1" onclick="setBalloonData(0,'HUH! WHO ARE YOU?')">
            <metadata borderStyle="smooth" tailTip="552,265" boundingBox="" tailDirection="SE" rank="4"/>
        </polygon>
        <polygon points="636,126 801,123 813,131 810,141 804,147 799,152 794,155 803,154 809,158 814,161 821,166 825,171 827,174 830,185 830,191 827,202 821,210 811,215 804,218 793,224 794,231 796,242 796,250 795,258 794,265 791,270 788,276 785,277 782,262 780,250 778,245 770,247 759,250 747,251 736,252 719,252 702,251 671,249 650,243 629,237 616,230 608,224 604,212 608,193 615,185 627,175 623,173 623,168 619,164 614,162 623,157 628,143 626,136 636,126" id="FOX_CHILLINTALES_T17_006_balloon_4"
            tabindex="1" onclick="setBalloonData(1,'STEENIE, I HAVE BEEN LOOKING FOR YOU.')">
            <metadata borderStyle="smooth" tailTip="785,277" boundingBox="5" tailDirection="S" rank="5"/>
        </polygon>
    </svg>
    <!--panel3-->
     <svg contentScriptType="text/ecmascript" zoomAndPan="magnify" contentStyleType="text/css" class="Panel" preserveAspectRatio="xMidYMid meet" height="940" width="900" viewBox="0 0 1250 940" version="1.0" id="panel">
        <polygon points="853,51 1233,53 1238,898 856,899 853,51" id="FOX_CHILLINTALES_T17_006_panel_2"
            tabindex="2" onclick="setPanelData(3, 'Panel Three','In a wood with trees.','STEENIE’s upper body  is on the left and A Stranger’s upper body  is on the right.')">
            <metadata viewAngle="" uri="" shot="" area="" rank="3" fillingPcent=""/>
        </polygon>
    </svg>
    <svg contentScriptType="text/ecmascript" zoomAndPan="magnify" contentStyleType="text/css" class="Character" preserveAspectRatio="xMidYMid meet" height="940" width="900" viewBox="0 0 1250 940" version="1.0" id="character">
        <polygon points="858,396 1087,396 1087,902 858,902 858,396" id="FOX_CHILLINTALES_T17_006_character_3"
            tabindex="2" onclick="setCharacterData(3,'STEENIE','He is talking to a man in front.','He looks puzzled.')">
            <metadata ID="" rank=""/>
        </polygon>
        <polygon points="1032,305 1243,305 1243,901 1032,901 1032,305" id="FOX_CHILLINTALES_T17_006_character_4"
            tabindex="2" onclick="setCharacterData(3,'A Stranger','He is talking to a man in front.','He is serious.')">
            <metadata ID="" rank=""/>
        </polygon>
    </svg>
    <svg contentScriptType="text/ecmascript" zoomAndPan="magnify" contentStyleType="text/css" class="Balloon" preserveAspectRatio="xMidYMid meet" height="940" width="900" viewBox="0 0 1250 940" version="1.0" id="balloon">
        <polygon points="881,53 1013,51 1037,60 1040,67 1036,73 1032,76 1026,80 1025,81 1025,81 1033,85 1038,89 1044,99 1047,106 1049,122 1050,132 1050,136 1046,144 1045,147 1041,153 1034,157 1020,163 1012,167 1018,169 1021,170 1023,177 1022,183 1020,187 1018,192 1012,197 1006,200 994,204 989,204 980,205 978,217 977,231 974,246 973,261 972,272 968,285 966,297 961,319 957,325 960,295 961,271 961,246 961,229 957,210 941,208 926,207 909,204 893,202 883,200 876,195 871,191 868,179 873,167 883,156 870,154 856,146 855,95 865,89 864,83 862,76 865,65 881,53" id="FOX_CHILLINTALES_T17_006_balloon_5"
            tabindex="2" onclick="setBalloonData(0,'ME? WHAT ON AIRTH CAN YE WANT WITH ME?')">
            <metadata borderStyle="smooth" tailTip="957,325" boundingBox="" tailDirection="S" rank="6"/>
        </polygon>
        <polygon points="1068,52 1239,52 1238,306 1213,308 1177,316 1139,328 1119,333 1099,333 1080,330 1064,327 1061,341 1057,359 1063,374 1048,357 1044,331 1044,319 1032,310 1014,296 1007,284 1004,260 1012,231 1038,195 1034,185 1029,174 1028,161 1036,149 1044,143 1047,134 1047,122 1047,112 1044,101 1038,88 1035,78 1068,52" id="FOX_CHILLINTALES_T17_006_balloon_6"
            tabindex="2" onclick="setBalloonData(1,'THE AULD LAIRD IS DISTURBED IN HIS GRAVE BY YOUR CURSES! IF YE DARE VEN-TURE TO GO AND SEE HIM, HE WILL GIVE YOU THE RECEIPT.')">
            <metadata borderStyle="smooth" tailTip="1063,374" boundingBox="" tailDirection="SE" rank="7"/>
        </polygon>
    </svg>
<metadata method="GroundTruth" lastModificationDate="Wed Apr 09 00:00:24 CEST 2014" lastStepModified="Page_Ended"/>
<script type="text/javascript" xlink:href="https://sdk.amazonaws.com/js/aws-sdk-2.410.0.min.js" xlink:actuate="onLoad" xlink:show="other" xlink:type="simple"></script>
<script type="text/javascript" xlink:href="../../../../java/polly.js" xlink:actuate="onLoad" xlink:show="other" xlink:type="simple"> </script>
<script type="text/javascript" xlink:href="../../../../java/pollyData.js" xlink:actuate="onLoad" xlink:show="other" xlink:type="simple"> </script>
<script type="text/javascript" xlink:href="../../../../java/toggleEvent.js" xlink:actuate="onLoad" xlink:show="other" xlink:type="simple"> </script>
</svg>