<?xml version="1.0" encoding="UTF-8" standalone="no"?>
<svg onload="changeData()" xmlns="http://www.w3.org/2000/svg" xmlns:xlink="http://www.w3.org/1999/xlink" contentScriptType="text/ecmascript" width="25em" zoomAndPan="magnify" contentStyleType="text/css" height="auto" viewBox="-20 0 950 500" preserveAspectRatio="xMidYMid meet" version="1.0">
    <title>PIKE_BOYLOVEGIRLS_T41_012</title>
    <svg contentScriptType="text/ecmascript" zoomAndPan="magnify" contentStyleType="text/css" class="Page" preserveAspectRatio="xMidYMid meet" version="1.0">
        <image x="0" y="0" width="900" xlink:href="../../../image/strip/love/PIKE_BOYLOVEGIRLS_T41_Scrip_01.jpg" xlink:type="simple" xlink:actuate="onLoad" height="450" preserveAspectRatio="xMidYMid meet" xlink:show="embed"/>
        <metadata collectionTitle="Boy Love Girls" editorName="Lev Gleason" doublePage="false" website="http://comicbookplus.com/?dlid=31803" albumTitle="Boy Love Girls 41" drawerName="Jay Scott Pike" language="english" resolution="" ISBN="" readingDirection="leftToRight" writerName="Jay Scott Pike" releaseDate="" pageNumber="12"/>
    </svg>
	<style type="text/css" xml:space="preserve">
        * { stroke-width: 0; stroke-linejoin: round; }
        .Unclassified { fill: rgba(0,0,0,0); stroke: none; opacity: .8; visibility: hidden; }
        .Noise { fill: rgba(0,0,0,0); stroke: none; opacity: .8; visibility: hidden; }
        .Panel { fill: rgba(0,0,0,0); stroke: none; opacity: .8; visibility: visible; image-rendering: optimizeSpeed; }
        .Line { fill: rgba(0,0,0,0); stroke: none; opacity: .8; visibility: visible; image-rendering: optimizeSpeed; }
        .TextArea { fill: rgba(0,0,0,0); stroke: none; opacity: .8; visibility: visible; image-rendering: optimizeSpeed; }
        .Balloon { fill: rgba(0,0,0,0); stroke: none; opacity: .8; visibility: visible; image-rendering: optimizeSpeed; }
        .Letter { fill: rgba(0,0,0,0); stroke: none; opacity: .8; visibility: hidden; }
        .Character { fill: rgba(0,0,0,0); stroke: none; opacity: .8; visibility: visible; image-rendering: optimizeSpeed; }
        .Page { fill: rgba(0,0,0,0); stroke: none; opacity: .8; visibility: visible; }
        .linkSBSC { fill: rgba(0,0,0,0); stroke: none; opacity: .8; visibility: visible; }
        polygon:hover { stroke:red;stroke-width:2; } 
    </style>
     <!--panel1-->
    <svg contentScriptType="text/ecmascript" zoomAndPan="magnify" contentStyleType="text/css" class="Panel" preserveAspectRatio="xMidYMid meet" viewBox="285 62 990 822" version="1.0" id="panel">
        <polygon points="35,94 482,92 480,776 34,778 35,94" id="PIKE_BOYLOVEGIRLS_T41_012_panel_0"
            tabindex="0" onclick="setPanelData(4, 'Panel One','The place is the front yard of a house and in front of a car.','CYNTHY’s profile body is on the left, and the CURT’s front body is on the right.')">
            <metadata viewAngle="" uri="" shot="" area="" rank="1" fillingPcent=""/>
        </polygon>
    </svg>
    <svg contentScriptType="text/ecmascript" zoomAndPan="magnify" contentStyleType="text/css" class="Character" preserveAspectRatio="xMidYMid meet" viewBox="285 62 990 822" version="1.0" id="character">
        <polygon points="27,284 193,284 193,782 27,782 27,284" id="PIKE_BOYLOVEGIRLS_T41_012_character_1"
           tabindex="0" onclick="setCharacterData(4,'CYNTHY','She turns her head and speaks to the man.','Unknown','A woman with black hair is wearing a long red dress.')">
            <metadata uri="" area="" fillingPcent=""/>
        </polygon>
        <polygon points="275,269 460,269 460,778 275,778 275,269" id="PIKE_BOYLOVEGIRLS_T41_012_character_0"
            tabindex="0" onclick="setCharacterData(4,'CURT','The man is holding a tennis racket with his left hand. His right hand is outstretched.','His face is neutral.','A man with yellow hair is wearing a white shirt, beige short pants and white shoes.')">
            <metadata uri="" area="" fillingPcent=""/>
        </polygon>
    </svg>
    <svg contentScriptType="text/ecmascript" zoomAndPan="magnify" contentStyleType="text/css" class="Balloon" preserveAspectRatio="xMidYMid meet" viewBox="285 62 990 822" version="1.0" id="balloon">
        <polygon points="33,114 54,92 229,92 239,107 253,128 258,147 258,166 251,194 229,220 205,236 174,244 167,245 156,286 150,257 146,250 93,244 57,232 32,211 33,114" id="PIKE_BOYLOVEGIRLS_T41_012_balloon_0"
            tabindex="0" onclick="setBalloonData(5, 'CURT! OH... I FORGOT WE WERE GOING TO PLAY TENNIS!')">
            <metadata borderStyle="smooth" tailTip="156,286" boundingBox="" tailDirection="S" rank="1"/>
        </polygon>
        <polygon points="245,115 272,90 470,92 486,105 484,222 461,241 396,260 346,261 321,260 316,274 317,285 305,275 302,259 273,245 255,233 241,211 245,115" id="PIKE_BOYLOVEGIRLS_T41_012_balloon_1"
            tabindex="0" onclick="setBalloonData(0, 'WELL... OKAY, HONEY! I’D JUST AS SOON GO FOR A DRIVE, ANYWAY!')">
            <metadata borderStyle="smooth" tailTip="317,285" boundingBox="" tailDirection="S" rank="2"/>
        </polygon>
    </svg>        
    <!--panel2-->
    <svg contentScriptType="text/ecmascript" zoomAndPan="magnify" contentStyleType="text/css" class="Panel" preserveAspectRatio="xMidYMid meet" viewBox="285 62 990 822" version="1.0" id="panel">
        <polygon points="506,146 943,144 945,775 506,776 506,146" id="PIKE_BOYLOVEGIRLS_T41_012_panel_1"
            tabindex="1" onclick="setPanelData(4, 'Panel Two','The place is inside a yellow convertible car.','CYNTHY’s profile is on the left, and the CURT’s face is on the right.')">
            <metadata viewAngle="" uri="" shot="" area="" rank="2" fillingPcent=""/>
        </polygon>
    </svg>
    <svg contentScriptType="text/ecmascript" zoomAndPan="magnify" contentStyleType="text/css" class="Character" preserveAspectRatio="xMidYMid meet" viewBox="285 62 990 822" version="1.0" id="character">
        <polygon points="501,351 730,351 730,727 501,727 501,351" id="PIKE_BOYLOVEGIRLS_T41_012_character_2"
            tabindex="1" onclick="setCharacterData(4,'CYNTHY','She is leaning her arm against the car door.','She seems worried.','')">
            <metadata uri="" area="" fillingPcent=""/>
        </polygon>
        <polygon points="646,316 873,316 873,609 646,609 646,316" id="PIKE_BOYLOVEGIRLS_T41_012_character_3"
             tabindex="1" onclick="setCharacterData(4,'CURT','He is driving and looking at the woman next to him.','He seems worried.','')">
            <metadata uri="" area="" fillingPcent=""/>
        </polygon>
    </svg>
    <svg contentScriptType="text/ecmascript" zoomAndPan="magnify" contentStyleType="text/css" class="Balloon" preserveAspectRatio="xMidYMid meet" viewBox="285 62 990 822" version="1.0" id="balloon">
        <polygon points="515,89 924,89 921,132 516,138 515,89" id="PIKE_BOYLOVEGIRLS_T41_012_balloon_2"
            tabindex="1" onclick="setBalloonData(5, 'I WAS IN A BAD MOOD, AND CURT SENSED IT IMMEDIATELY...')">
            <metadata borderStyle="other" tailTip="" boundingBox="" tailDirection="none" rank="3"/>
        </polygon>
        <polygon points="505,157 525,141 920,143 948,164 944,245 931,247 913,245 909,264 886,286 863,293 856,292 839,325 840,313 834,292 779,296 671,297 607,294 539,283 512,269 506,261 505,157" id="PIKE_BOYLOVEGIRLS_T41_012_balloon_3"
            tabindex="1" onclick="setBalloonData(0, 'YOU’VE SEEMED SO UNHAPPY LATELY, CUNTHY! I WISH THERE WAS SOMETHING I COULD DO! WISH YOU’D LET ME TRY AND MAKE YOU HAPPY!')">
            <metadata borderStyle="smooth" tailTip="839,325" boundingBox="" tailDirection="S" rank="4"/>
        </polygon>
    </svg>   
    <!--panel3-->
    <svg contentScriptType="text/ecmascript" zoomAndPan="magnify" contentStyleType="text/css" class="Panel" preserveAspectRatio="xMidYMid meet" viewBox="285 62 990 822" version="1.0" id="panel">
        <polygon points="970,91 1416,89 1421,773 969,773 970,91" id="PIKE_BOYLOVEGIRLS_T41_012_panel_2"
            tabindex="2" onclick="setPanelData(4, 'Panel Three','The place is inside a yellow convertible car.','CYNTHY’s profile is on the right, and the CURT’s profile is on the left.')">
            <metadata viewAngle="" uri="" shot="" area="" rank="3" fillingPcent=""/>
        </polygon>
    </svg>
    <svg contentScriptType="text/ecmascript" zoomAndPan="magnify" contentStyleType="text/css" class="Character" preserveAspectRatio="xMidYMid meet" viewBox="285 62 990 822" version="1.0" id="character">
        <polygon points="1027,355 1213,355 1213,532 1027,532 1027,355" id="PIKE_BOYLOVEGIRLS_T41_012_character_4"
            tabindex="2" onclick="setCharacterData(4,'CURT','He  is talking to the woman.','He seems worried.')">
            <metadata uri="" area="" fillingPcent=""/>
        </polygon>
        <polygon points="1247,391 1412,391 1412,543 1247,543 1247,391" id="PIKE_BOYLOVEGIRLS_T41_012_character_5"
            tabindex="2" onclick="setCharacterData(4,'CYNTHY','She is talking to the man.','She seems worried.')">
            <metadata uri="" area="" fillingPcent=""/>
        </polygon>
    </svg>
    <svg contentScriptType="text/ecmascript" zoomAndPan="magnify" contentStyleType="text/css" class="Balloon" preserveAspectRatio="xMidYMid meet" viewBox="285 62 990 822" version="1.0" id="balloon">
        <polygon points="971,89 1421,89 1420,206 969,207 971,89" id="PIKE_BOYLOVEGIRLS_T41_012_balloon_4"
            tabindex="2" onclick="setBalloonData(5, 'I KNEW WHAT WAS COMING, BUT I DIDN’T WANT TO GIVE HIM AN ANSWER... NOT THEN. I TRIED TO CHANGE THE MOOD!')">
            <metadata borderStyle="smooth" tailTip="" boundingBox="" tailDirection="none" rank="5"/>
        </polygon>
        <polygon points="995,244 1002,224 1017,207 1026,202 1329,201 1349,213 1365,231 1370,248 1369,274 1358,296 1339,312 1308,326 1291,330 1277,333 1277,347 1276,360 1282,378 1268,365 1255,343 1251,337 1179,338 1110,337 1055,325 1021,303 995,266 995,244" id="PIKE_BOYLOVEGIRLS_T41_012_balloon_5"
            tabindex="2" onclick="setBalloonData(5, 'GOODNESS, CURT, YOU WORRY ABOUT ME TOO MUCH! C’MON, LET’S GO FOR A SWIM!')">
            <metadata borderStyle="smooth" tailTip="1282,378" boundingBox="" tailDirection="SE" rank="6"/>
        </polygon>
    </svg>   
<metadata method="GroundTruth" lastModificationDate="Sun Feb 09 11:16:15 CET 2014" lastStepModified="Balloon_Rank"/>
<script type="text/javascript" xlink:href="https://sdk.amazonaws.com/js/aws-sdk-2.410.0.min.js" xlink:actuate="onLoad" xlink:show="other" xlink:type="simple"></script>
<script type="text/javascript" xlink:href="../../../../java/polly.js" xlink:actuate="onLoad" xlink:show="other" xlink:type="simple"> </script>
<script type="text/javascript" xlink:href="../../../../java/pollyData.js" xlink:actuate="onLoad" xlink:show="other" xlink:type="simple"> </script>
<script type="text/javascript" xlink:href="../../../../java/toggleEvent.js" xlink:actuate="onLoad" xlink:show="other" xlink:type="simple"> </script>
</svg>