<?xml version="1.0" encoding="UTF-8" standalone="no"?>
<svg onload="changeData()" xmlns="http://www.w3.org/2000/svg" xmlns:xlink="http://www.w3.org/1999/xlink" contentScriptType="text/ecmascript" width="25em" zoomAndPan="magnify" contentStyleType="text/css" height="auto" viewBox="-20 0 950 500" preserveAspectRatio="xMidYMid meet" version="1.0">
    <title>PIKE_BOYLOVEGIRLS_T41_012</title>
    <svg contentScriptType="text/ecmascript" zoomAndPan="magnify" contentStyleType="text/css" class="Page" preserveAspectRatio="xMidYMid meet" version="1.0">
        <image x="0" y="0" width="900" xlink:href="../../../image/strip/love/PIKE_BOYLOVEGIRLS_T41_Scrip_03.jpg" xlink:type="simple" xlink:actuate="onLoad" height="450" preserveAspectRatio="xMidYMid meet" xlink:show="embed"/>
        <metadata collectionTitle="Boy Love Girls" editorName="Lev Gleason" doublePage="false" website="http://comicbookplus.com/?dlid=31803" albumTitle="Boy Love Girls 41" drawerName="Jay Scott Pike" language="english" resolution="" ISBN="" readingDirection="leftToRight" writerName="Jay Scott Pike" releaseDate="" pageNumber="12"/>
    </svg>
    <style type="text/css" xml:space="preserve">
         * { stroke-width: 0; stroke-linejoin: round; }
        .Unclassified { fill: rgba(0,0,0,0); stroke: none; opacity: .8; visibility: hidden; }
        .Noise { fill: rgba(0,0,0,0); stroke: none; opacity: .8; visibility: hidden; }
        .Panel { fill: rgba(0,0,0,0); stroke: none; opacity: .8; visibility: visible; image-rendering: optimizeSpeed; }
        .Line { fill: rgba(0,0,0,0); stroke: none; opacity: .8; visibility: visible; image-rendering: optimizeSpeed; }
        .TextArea { fill: rgba(0,0,0,0); stroke: none; opacity: .8; visibility: visible; image-rendering: optimizeSpeed; }
        .Balloon { fill: rgba(0,0,0,0); stroke: none; opacity: .8; visibility: visible; image-rendering: optimizeSpeed; }
        .Letter { fill: rgba(0,0,0,0); stroke: none; opacity: .8; visibility: hidden; }
        .Character { fill: rgba(0,0,0,0); stroke: none; opacity: .8; visibility: visible; image-rendering: optimizeSpeed; }
        .Page { fill: rgba(0,0,0,0); stroke: none; opacity: .8; visibility: visible; }
        .linkSBSC { fill: rgba(0,0,0,0); stroke: none; opacity: .8; visibility: visible; }
        polygon:hover { stroke:red;stroke-width:2; } 
    </style>
 <!--panel6-->
    <svg contentScriptType="text/ecmascript" zoomAndPan="magnify" contentStyleType="text/css" class="Panel" preserveAspectRatio="xMidYMid meet" viewBox="300 1465 970 830" version="1.0" id="panel">
        <polygon points="34,1526 811,1523 815,2177 31,2183 34,1526" id="PIKE_BOYLOVEGIRLS_T41_012_panel_5"
            tabindex="5" onclick="setPanelData(4, 'Panel Six','The place is in front of the house where the party is held.','From the left, CURT, Gloria, and her husband sit on the couch in series, while CYNTHY sits separately facing them on the right.')">
            <metadata viewAngle="" uri="" shot="" area="" rank="6" fillingPcent=""/>
        </polygon>
    </svg>
    <svg contentScriptType="text/ecmascript" zoomAndPan="magnify" contentStyleType="text/css" class="Character" preserveAspectRatio="xMidYMid meet" viewBox="300 1465 970 830" version="1.0" id="character">
        <polygon points="420,1834 634,1834 634,2180 420,2180 420,1834" id="PIKE_BOYLOVEGIRLS_T41_012_character_13"
             tabindex="5" onclick="setCharacterData(4,'CURT','He is sitting on a sofa, looking at the ground.','He seems worried and downcast.')">
            <metadata uri="" area="" fillingPcent=""/>
        </polygon>
        <polygon points="247,1834 478,1834 478,2181 247,2181 247,1834" id="PIKE_BOYLOVEGIRLS_T41_012_character_14"
            tabindex="5" onclick="setCharacterData(4,'GLORIA','She is sitting on the sofa with her arms crossed.','She is expressionless.')">
            <metadata uri="" area="" fillingPcent=""/>
        </polygon>
        <polygon points="29,1794 277,1794 277,2187 29,2187 29,1794" id="PIKE_BOYLOVEGIRLS_T41_012_character_15"
            tabindex="5" onclick="setCharacterData(4,'GLORIA’s HUSBAND','He is sitting on a sofa with his arms around the sofa.','He is sympathetic.')">
            <metadata uri="" area="" fillingPcent=""/>
        </polygon>
        <polygon points="636,1744 817,1744 817,2183 636,2183 636,1744" id="PIKE_BOYLOVEGIRLS_T41_012_character_12"
            tabindex="5" onclick="setCharacterData(4,'CYNTHY','She is talking to the three people in front.','She seems to be irritated .')">
            <metadata uri="" area="" fillingPcent=""/>
        </polygon>
    </svg>
    <svg contentScriptType="text/ecmascript" zoomAndPan="magnify" contentStyleType="text/css" class="Balloon" preserveAspectRatio="xMidYMid meet" viewBox="300 1465 970 830" version="1.0" id="balloon">
        <polygon points="174,1492 656,1492 660,1519 178,1517 174,1492" id="PIKE_BOYLOVEGIRLS_T41_012_balloon_10"
            tabindex="5" onclick="setBalloonData(4, 'THE CONVERSATION WANDERED ON AIMLESSLY.....')">
            <metadata borderStyle="other" tailTip="" boundingBox="" tailDirection="none" rank="11"/>
        </polygon>
        <polygon points="29,1552 58,1526 310,1526 324,1541 335,1567 338,1587 335,1618 319,1645 299,1661 274,1676 244,1683 239,1716 222,1779 223,1758 215,1688 161,1687 103,1681 54,1666 31,1648 29,1552" id="PIKE_BOYLOVEGIRLS_T41_012_balloon_11"
            tabindex="5" onclick="setBalloonData(2, 'MY OLD MAN SAYS I'M GOING TO HAVE TO TAKE THAT ADVERTISING JOB IN NEW YORK!')">
            <metadata borderStyle="smooth" tailTip="222,1779" boundingBox="" tailDirection="S" rank="12"/>
        </polygon>        
        <polygon points="319,1536 333,1524 815,1521 813,1597 772,1622 709,1631 639,1631 582,1629 552,1624 548,1646 518,1673 478,1683 462,1685 465,1742 479,1798 469,1785 451,1754 438,1711 432,1687 392,1681 350,1670 323,1654 316,1644 319,1536" id="PIKE_BOYLOVEGIRLS_T41_012_balloon_12"
            tabindex="5" onclick="setBalloonData(0, 'YEAH, ME, TOO! HE’LL TAKE ME ON AT THE BANK, BUT I THINK I’D RATHER WORK IN MY UNCLE’S PUBLISHING HOUSE!')">
            <metadata borderStyle="smooth" tailTip="479,1798" boundingBox="" tailDirection="S" rank="13"/>
        </polygon>
        <polygon points="495,1690 498,1681 549,1621 755,1625 767,1630 770,1636 772,1646 781,1646 795,1645 809,1651 814,1654 813,1708 787,1734 751,1746 709,1750 662,1752 622,1752 625,1779 630,1801 646,1827 620,1809 601,1773 593,1754 547,1744 505,1721 495,1690" id="PIKE_BOYLOVEGIRLS_T41_012_balloon_13"
            tabindex="5" onclick="setBalloonData(5, 'DIT IT EVER OCCUR TO YOU THAT YOU’RE LUCKY TO GET JOBS?')">
            <metadata borderStyle="smooth" tailTip="646,1827" boundingBox="" tailDirection="SE" rank="14"/>
        </polygon>
    </svg>
<!--panel7-->
    <svg contentScriptType="text/ecmascript" zoomAndPan="magnify" contentStyleType="text/css" class="Panel" preserveAspectRatio="xMidYMid meet" viewBox="300 1465 970 830" version="1.0" id="panel">
        <polygon points="836,1493 1426,1488 1431,2170 839,2180 836,1493" id="PIKE_BOYLOVEGIRLS_T41_012_panel_6"
            tabindex="6" onclick="setPanelData(4, 'Panel Seven','The place is in front of a window inside the house.','CYNTHY’s profile is on the center facing right.')">
            <metadata viewAngle="" uri="" shot="" area="" rank="7" fillingPcent=""/>
        </polygon>
    </svg>
    <svg contentScriptType="text/ecmascript" zoomAndPan="magnify" contentStyleType="text/css" class="Character" preserveAspectRatio="xMidYMid meet" viewBox="300 1465 970 830" version="1.0" id="character">
        <polygon points="993,1685 1256,1685 1256,2178 993,2178 993,1685" id="PIKE_BOYLOVEGIRLS_T41_012_character_11"
            tabindex="6" onclick="setCharacterData(4,'CYNTHY','She is standing looking at the window.','She seems to be outraged')">
            <metadata uri="" area="" fillingPcent=""/>
        </polygon>
    </svg>
    <svg contentScriptType="text/ecmascript" zoomAndPan="magnify" contentStyleType="text/css" class="Balloon" preserveAspectRatio="xMidYMid meet" viewBox="300 1465 970 830" version="1.0" id="balloon">
        <polygon points="836,1656 834,1491 1085,1487 1107,1501 1125,1529 1132,1559 1126,1591 1112,1613 1096,1622 1085,1622 1091,1633 1080,1662 1048,1682 1003,1691 955,1692 919,1689 889,1721 855,1749 837,1757 837,1743 865,1717 882,1692 889,1682 854,1670 836,1656" id="PIKE_BOYLOVEGIRLS_T41_012_balloon_14"
             tabindex="6" onclick="setBalloonData(0, 'LUCKY? MY OLD MAN’S GOT ENOUGH DOUGH TO SUPPORT HALF THIS TOWN! WHY SHOULD I WANT TO WORK?')">
            <metadata borderStyle="smooth" tailTip="837,1757" boundingBox="" tailDirection="SW" rank="15"/>
        </polygon>
        <polygon points="1121,1517 1132,1501 1154,1487 1350,1487 1371,1499 1386,1522 1390,1542 1381,1566 1359,1586 1341,1598 1307,1614 1275,1616 1245,1614 1239,1622 1225,1623 1216,1631 1188,1679 1192,1647 1190,1628 1158,1619 1135,1607 1121,1597 1121,1517" id="PIKE_BOYLOVEGIRLS_T41_012_balloon_15"
            tabindex="6" onclick="setBalloonData(5, 'IF YOU DON’T KNOW, I’M NOT GOING TO TELL YOU!')">
            <metadata borderStyle="smooth" tailTip="1188,1679" boundingBox="" tailDirection="S" rank="16"/>
        </polygon>
        <polygon points="1362,1592 1410,1605 1429,1618 1430,1691 1408,1707 1375,1713 1351,1715 1340,1717 1341,1734 1351,1757 1368,1782 1346,1768 1326,1744 1315,1718 1278,1712 1244,1683 1236,1650 1243,1624 1252,1615 1362,1592 1362,1592 1362,1592" id="PIKE_BOYLOVEGIRLS_T41_012_balloon_16"
            tabindex="6" onclick="setBalloonData(2, 'ARE YOU SPEAKING TO ME?')">
            <metadata borderStyle="smooth" tailTip="1368,1782" boundingBox="" tailDirection="SW" rank="17"/>
        </polygon>
    </svg>
<metadata method="GroundTruth" lastModificationDate="Sun Feb 09 11:16:15 CET 2014" lastStepModified="Balloon_Rank"/>
<script type="text/javascript" xlink:href="https://sdk.amazonaws.com/js/aws-sdk-2.410.0.min.js" xlink:actuate="onLoad" xlink:show="other" xlink:type="simple"></script>
<script type="text/javascript" xlink:href="../../../../java/polly.js" xlink:actuate="onLoad" xlink:show="other" xlink:type="simple"> </script>
<script type="text/javascript" xlink:href="../../../../java/pollyData.js" xlink:actuate="onLoad" xlink:show="other" xlink:type="simple"> </script>
<script type="text/javascript" xlink:href="../../../../java/toggleEvent.js" xlink:actuate="onLoad" xlink:show="other" xlink:type="simple"> </script>
</svg>